<svg width="40" height="40" viewBox="0 0 40 40" fill="none" xmlns="http://www.w3.org/2000/svg">
<path d="M20 0C8.96 0 0 8.96 0 20C0 31.04 8.96 40 20 40C31.04 40 40 31.04 40 20C40 8.96 31.04 0 20 0ZM26.92 25.4C25.68 25.4 24.56 24.76 23.96 23.76C22.96 24.76 21.64 25.36 20.12 25.36C17.16 25.36 14.76 22.96 14.76 20C14.76 17.04 17.16 14.64 20.12 14.64C23.08 14.64 25.48 17.04 25.48 20V21.76C25.48 22.64 26.12 23.28 26.92 23.28C27.88 23.28 28.68 22.48 28.68 20.04C28.68 15.32 24.84 11.48 20.12 11.48C15.4 11.48 11.56 15.32 11.56 20.04C11.56 24.76 15.4 28.6 20.12 28.6C22.84 28.6 24.72 27.24 24.72 27.24L26.12 28.84C26.12 28.84 23.72 30.68 20.08 30.68C14.2 30.68 9.4 25.88 9.4 20C9.4 14.12 14.2 9.32 20.08 9.32C26 9.32 30.8 14.12 30.8 20C30.8 23.68 29.08 25.4 26.92 25.4Z" fill="#F3976C"/>
<path d="M23.0988 21.2483C23.7836 19.5951 22.9985 17.6997 21.3453 17.0149C19.6921 16.3301 17.7967 17.1152 17.1119 18.7684C16.4271 20.4217 17.2122 22.317 18.8654 23.0018C20.5186 23.6866 22.414 22.9016 23.0988 21.2483Z" fill="#F3976C"/>
</svg>
