<svg id="Слой_1" data-name="Слой 1" xmlns="http://www.w3.org/2000/svg" viewBox="0 0 50 50"><defs><style>.cls-1{fill:#ff651d;}</style></defs><path class="cls-1" d="M25,1A24,24,0,1,0,49,25,24,24,0,0,0,25,1Zm1.83,31.59a4.06,4.06,0,0,1-3.46-1.78l-1.06,3.7a17,17,0,0,1-2,4.12.58.58,0,0,1-.58.29c-.29,0-.38-.43-.38-.62a15.83,15.83,0,0,1,0-4.56l1.77-7.63a5.93,5.93,0,0,1-.43-2.31c0-2.11,1.34-3.74,2.83-3.74s2,1,2,2.21-.91,3.26-1.34,5.08a2.36,2.36,0,0,0,2.35,2.84c2.73,0,4.89-2.93,4.89-7.11,0-3.69-2.68-6.24-6.48-6.24a6.67,6.67,0,0,0-7,6.67,5.75,5.75,0,0,0,1.16,3.56c.14.09.14.24.09.43l-.43,1.68c0,.29-.19.33-.43.19-2-.91-3.12-3.7-3.12-5.95,0-4.9,3.45-9.36,10.13-9.36,5.32,0,9.45,3.84,9.45,8.88C34.88,28.33,31.57,32.61,26.87,32.61Z"/></svg>