<svg width="40" height="40" viewBox="0 0 40 40" fill="none" xmlns="http://www.w3.org/2000/svg">
<path d="M20 0C8.96 0 0 8.96 0 20C0 31.04 8.96 40 20 40C31.04 40 40 31.04 40 20C40 8.96 31.04 0 20 0ZM21.52 26.32C20.28 26.32 19.04 25.64 18.64 24.84L17.76 27.92C17.48 29 16.68 30.48 16.12 31.36C16.04 31.48 15.88 31.64 15.64 31.6C15.4 31.56 15.32 31.24 15.32 31.08C15.2 30.08 15.08 28.4 15.32 27.28L16.8 20.92C16.8 20.92 16.44 20.16 16.44 19C16.44 17.24 17.56 15.88 18.8 15.88C19.92 15.88 20.44 16.68 20.44 17.72C20.44 18.84 19.68 20.44 19.32 21.96C19.08 23.2 20 24.32 21.28 24.32C23.56 24.32 25.36 21.88 25.36 18.4C25.36 15.32 23.12 13.2 19.96 13.2C16.32 13.2 14.16 15.92 14.16 18.76C14.16 19.88 14.52 21 15.12 21.72C15.24 21.8 15.24 21.92 15.2 22.08L14.84 23.48C14.84 23.72 14.68 23.76 14.48 23.64C12.84 22.88 11.88 20.56 11.88 18.68C11.88 14.6 14.76 10.88 20.32 10.88C24.76 10.88 28.2 14.08 28.2 18.28C28.2 22.76 25.44 26.32 21.52 26.32Z" fill="#F3976C"/>
</svg>
