<svg width="40" height="40" viewBox="0 0 40 40" fill="none" xmlns="http://www.w3.org/2000/svg">
<path fill-rule="evenodd" clip-rule="evenodd" d="M20.2 11.64C15.68 11.64 11.96 15.32 11.96 19.88C11.96 21.44 12.4 22.96 13.2 24.24L13.4 24.56L12.6 27.6L15.72 26.8L16.04 26.96C17.32 27.72 18.76 28.12 20.24 28.12C24.76 28.12 28.48 24.44 28.48 19.88C28.48 17.68 27.64 15.6 26.08 14.08C24.44 12.52 22.4 11.64 20.2 11.64ZM25.04 23.4C24.84 23.96 23.84 24.52 23.36 24.56C22.92 24.64 22.4 24.64 21.8 24.48C21.44 24.36 21 24.2 20.4 23.96C17.92 22.88 16.28 20.4 16.16 20.24C16.04 20.08 15.16 18.88 15.16 17.68C15.16 16.48 15.8 15.88 16.04 15.6C16.28 15.36 16.52 15.28 16.68 15.28C16.84 15.28 17 15.28 17.16 15.28C17.32 15.28 17.52 15.24 17.72 15.72C17.92 16.2 18.44 17.44 18.48 17.56C18.56 17.68 18.6 17.84 18.52 18C18.44 18.16 18.4 18.28 18.28 18.4C18.16 18.56 18.04 18.72 17.92 18.84C17.8 18.96 17.68 19.08 17.8 19.36C17.96 19.6 18.44 20.4 19.16 21.08C20.12 21.92 20.92 22.2 21.16 22.32C21.4 22.44 21.56 22.44 21.68 22.24C21.84 22.08 22.28 21.52 22.48 21.28C22.64 21.04 22.8 21.08 23.04 21.16C23.28 21.24 24.48 21.84 24.72 21.96C24.96 22.08 25.12 22.16 25.2 22.24C25.24 22.36 25.24 22.84 25.04 23.4Z" fill="#F3976C"/>
<path fill-rule="evenodd" clip-rule="evenodd" d="M20 0C8.96 0 0 8.96 0 20C0 31.04 8.96 40 20 40C31.04 40 40 31.04 40 20C40 8.96 31.04 0 20 0ZM20.2 29.8C18.52 29.8 16.92 29.4 15.48 28.6L10.24 29.96L11.64 24.84C10.76 23.32 10.32 21.64 10.32 19.88C10.32 14.44 14.76 10 20.2 10C22.84 10 25.32 11.04 27.2 12.92C29.08 14.8 30.08 17.28 30.08 19.92C30.08 25.36 25.64 29.8 20.2 29.8Z" fill="#F3976C"/>
</svg>
