<svg id="Слой_1" data-name="Слой 1" xmlns="http://www.w3.org/2000/svg" viewBox="0 0 49 49"><defs><style>.cls-1{fill:#ff651d;}</style></defs><path class="cls-1" d="M24.42.28a24,24,0,1,0,24,24A24,24,0,0,0,24.42.28Zm8.31,30.48a4.13,4.13,0,0,1-3.55-2A6.46,6.46,0,1,1,31,24.28v2.11a1.75,1.75,0,0,0,1.73,1.82c1.15,0,2.11-1,2.11-3.89A10.27,10.27,0,1,0,24.57,34.6,10.17,10.17,0,0,0,30.09,33l1.68,1.92a12.82,12.82,0,1,1,5.61-10.6C37.38,28.69,35.32,30.76,32.73,30.76Z"/><path class="cls-1" d="M28.14,25.77a3.89,3.89,0,1,0-5.08,2.11A3.9,3.9,0,0,0,28.14,25.77Z"/></svg>