<svg id="Слой_1" data-name="Слой 1" xmlns="http://www.w3.org/2000/svg" viewBox="0 0 76 46"><defs><style>.cls-1{fill:#fff;}</style></defs><path class="cls-1" d="M1.44,39v-29H23.16c8.32,0,12.84,3.52,12.84,9.4s-4.52,9.44-12.84,9.44H12.68V39Zm17.4-22.8H12.68v6.28h6.16c3.36,0,4.88-.64,4.88-3.16S22.2,16.17,18.84,16.17ZM38,30.13H51.6c.2,1.52,2,2.44,5.08,2.44s4.56-.68,4.56-2.08c0-1.24-1.36-2-4-2.32l-8.4-1c-7-.84-10.48-3.76-10.48-8.64,0-6.64,5.36-9.32,16.72-9.32,11.8,0,17.76,2.72,18.24,9.2H60.2c-.28-1.8-2.16-2.76-5.64-2.76-2.68,0-4.08.8-4.08,1.92,0,1.28,1.4,1.64,4.32,2L65,21.05c6.4.92,9.56,3.68,9.56,8.48,0,7.28-6.4,10.32-19.72,10.32C43.84,39.85,38.08,36.25,38,30.13Z"/></svg>