<svg id="Слой_1" data-name="Слой 1" xmlns="http://www.w3.org/2000/svg" viewBox="0 0 94 46"><defs><style>.cls-1{fill:#ff651d;}</style></defs><path class="cls-1" d="M6.81,37.84V8.8H28.53c8.32,0,12.84,3.52,12.84,9.4s-4.52,9.44-12.84,9.44H18.05v10.2ZM24.21,15H18.05v6.28h6.16c3.36,0,4.88-.64,4.88-3.16S27.57,15,24.21,15ZM43.36,29H57c.2,1.52,2,2.44,5.08,2.44s4.56-.68,4.56-2.08c0-1.24-1.36-2-4-2.32l-8.4-1c-7-.84-10.48-3.76-10.48-8.64C43.68,10.72,49,8,60.4,8c11.8,0,17.76,2.72,18.24,9.2H65.56c-.28-1.8-2.16-2.76-5.64-2.76-2.68,0-4.08.8-4.08,1.92,0,1.28,1.4,1.64,4.32,2L70.4,19.92C76.8,20.84,80,23.6,80,28.4c0,7.28-6.4,10.32-19.72,10.32C49.2,38.72,43.44,35.12,43.36,29Z"/></svg>