<svg id="Слой_1" data-name="Слой 1" xmlns="http://www.w3.org/2000/svg" viewBox="0 0 49 49"><defs><style>.cls-1{fill:#ff651d;fill-rule:evenodd;}</style></defs><path class="cls-1" d="M24.58,14.63a9.9,9.9,0,0,0-8.4,15.12l.24.39-1,3.64,3.74-1,.39.2a9.88,9.88,0,0,0,14.93-8.5,9.65,9.65,0,0,0-2.88-7A10.19,10.19,0,0,0,24.58,14.63Zm5.81,14.11a3,3,0,0,1-2,1.4A4.36,4.36,0,0,1,26.5,30c-.43-.14-1-.34-1.68-.62A13.56,13.56,0,0,1,19.73,25a5.91,5.91,0,0,1-1.2-3.07,3.46,3.46,0,0,1,1.06-2.5,1.17,1.17,0,0,1,.77-.38h.57c.19,0,.43-.05.67.53s.87,2.06.92,2.21a.5.5,0,0,1,0,.52,1.41,1.41,0,0,1-.28.48,4.12,4.12,0,0,1-.44.53.49.49,0,0,0-.14.63A11.43,11.43,0,0,0,23.33,26a8.72,8.72,0,0,0,2.4,1.49c.29.14.48.14.63-.1s.72-.86,1-1.15.38-.24.67-.14,1.73.81,2,1a2.82,2.82,0,0,1,.58.33A2.81,2.81,0,0,1,30.39,28.74Z"/><path class="cls-1" d="M24.34.66a24,24,0,1,0,24,24A24,24,0,0,0,24.34.66Zm.24,35.76A11.51,11.51,0,0,1,18.92,35l-6.29,1.64,1.68-6.15a11.71,11.71,0,0,1-1.59-5.95A11.84,11.84,0,0,1,33,16.17a11.73,11.73,0,0,1,3.46,8.4A11.88,11.88,0,0,1,24.58,36.42Z"/></svg>